<svg xmlns="http://www.w3.org/2000/svg" width="134" height="67" viewBox="0 0 134 67"><defs><style>.a{fill:#1d4970;}.b{fill:#f28814;}.c{fill:#fff;}</style></defs><g transform="translate(-234 -108)"><g transform="translate(233.982 107.549)"><rect class="a" width="134" height="67" rx="10" transform="translate(0.018 0.451)"/><g transform="translate(18.253 15.764)"><g transform="translate(0 0.638)"><path class="b" d="M3501.427,2623.868H3487.7l20.11-34.832h13.73Z" transform="translate(-3482.321 -2588.968)"/><path class="b" d="M3477.2,2588.668h-11.274l-.012.021c-.172-.013-.344-.021-.519-.021a6.84,6.84,0,0,0,0,13.679c2.781,0,4.876-1.743,6.242-4.045Z" transform="translate(-3458.558 -2588.668)"/><path class="b" d="M3599.369,2717.374h11.273l.012-.022c.171.013.344.022.519.022a6.84,6.84,0,1,0,0-13.679c-2.782,0-4.867,1.641-6.243,4.045Z" transform="translate(-3573.392 -2682.474)"/></g><g transform="translate(47.591 17.479)"><path class="b" d="M3732.153,2689.856l-10.609.1a4.721,4.721,0,0,0,1.166,3.068,3.526,3.526,0,0,0,2.668,1.086,9.579,9.579,0,0,0,2.525-.367,10.861,10.861,0,0,0,2.077-.751l.767-.383,1.374,2.556q-.352.288-.99.735a14.113,14.113,0,0,1-2.556,1.2,10.224,10.224,0,0,1-3.739.751,8.1,8.1,0,0,1-6.183-2.253,8.931,8.931,0,0,1-2.125-6.375,9.694,9.694,0,0,1,2.269-6.759,8.017,8.017,0,0,1,6.263-2.508,7.04,7.04,0,0,1,5.4,2.013,7.722,7.722,0,0,1,1.885,5.5Zm-7.413-6.167a2.742,2.742,0,0,0-2.125.895,4.267,4.267,0,0,0-1.007,2.4h5.752Q3727.359,2683.689,3724.739,2683.689Z" transform="translate(-3716.527 -2679.95)"/><path class="b" d="M3813,2680.525l6.614-.256.288,2.205q.255-.288.7-.7a10.717,10.717,0,0,1,1.613-1.118,4.2,4.2,0,0,1,2.125-.7,7.59,7.59,0,0,1,1.486.144,5.281,5.281,0,0,1,1.071.3l.319.128-.256,6.072h-2.78l-.479-2.716a3.66,3.66,0,0,0-1.693.447,5.362,5.362,0,0,0-1.31.895l-.448.448v8.5l3.036.8v2.556H3813v-2.556l2.556-.8v-10.449l-2.556-.639Z" transform="translate(-3795.204 -2679.95)"/><path class="b" d="M3906.5,2679.95a7.734,7.734,0,0,1,5.959,2.253,9.02,9.02,0,0,1,2.093,6.375,9.558,9.558,0,0,1-2.316,6.774,8.078,8.078,0,0,1-6.215,2.492q-8.147,0-8.148-8.788a9.229,9.229,0,0,1,2.332-6.694A8.35,8.35,0,0,1,3906.5,2679.95Zm-.16,3.675a3.059,3.059,0,0,0-2.668,1.182,7.314,7.314,0,0,0-.847,4.09,7.728,7.728,0,0,0,.8,4.01,2.8,2.8,0,0,0,2.556,1.262,2.892,2.892,0,0,0,2.588-1.246,7.861,7.861,0,0,0,.831-4.186,7.462,7.462,0,0,0-.783-3.85A2.7,2.7,0,0,0,3906.339,2683.625Z" transform="translate(-3864.416 -2679.95)"/></g><g transform="translate(41.438)"><path class="c" d="M3691.562,2589.162v12.586l1.55.365v1l-3.1.091-.146-1.04a4.089,4.089,0,0,1-3.01,1.222,3.213,3.213,0,0,1-2.727-1.268,6.738,6.738,0,0,1,.264-7.332,4.484,4.484,0,0,1,3.612-1.432,5.25,5.25,0,0,1,1.733.292v-3.028l-1.55-.365v-1Zm-1.824,11.4v-5.381a3.963,3.963,0,0,0-1.915-.365q-2.736,0-2.736,3.648a4.927,4.927,0,0,0,.556,2.535,1.867,1.867,0,0,0,1.723.93,2.417,2.417,0,0,0,1.514-.474A4.1,4.1,0,0,0,3689.738,2600.562Z" transform="translate(-3683.172 -2588.432)"/><path class="c" d="M3746.855,2590.314v8.208l1.368.456v1h-4.742v-1l1.551-.456v-6.749l-1.551-.365v-1Zm1.551-3.739-3.831,2.371-.638-.912,3.557-2.827Z" transform="translate(-3732.355 -2585.207)"/><path class="c" d="M3777.245,2612.891v1.094l-1.277.183,2.17,6.749,2.189-6.658-1.259-.273v-1l4.086-.091v1.094l-1,.183-3.1,8.39h-2.006l-2.991-8.3-.912-.273v-1Z" transform="translate(-3756.543 -2607.784)"/><path class="c" d="M3835.242,2593.943v8.208l1.368.456v1h-4.742v-1l1.55-.456V2595.4l-1.55-.365v-1Zm-1-4.287q1.186,0,1.186,1.368a1.042,1.042,0,0,1-.4.875,1.377,1.377,0,0,1-.857.31,1.039,1.039,0,0,1-.8-.338,1.337,1.337,0,0,1-.31-.939,1.269,1.269,0,0,1,.337-.939A1.152,1.152,0,0,1,3834.239,2589.656Z" transform="translate(-3804.436 -2588.835)"/><path class="c" d="M3873.872,2589.162v12.586l1.55.365v1l-3.1.091-.146-1.04a4.089,4.089,0,0,1-3.009,1.222,3.214,3.214,0,0,1-2.727-1.268,6.737,6.737,0,0,1,.264-7.332,4.485,4.485,0,0,1,3.612-1.432,5.251,5.251,0,0,1,1.733.292v-3.028l-1.551-.365v-1Zm-1.824,11.4v-5.381a3.963,3.963,0,0,0-1.915-.365q-2.736,0-2.736,3.648a4.927,4.927,0,0,0,.556,2.535,1.868,1.868,0,0,0,1.724.93,2.417,2.417,0,0,0,1.514-.474A4.109,4.109,0,0,0,3872.048,2600.562Z" transform="translate(-3831.848 -2588.432)"/><path class="c" d="M3926.832,2612.632a10.488,10.488,0,0,1,3.612-.729,4.028,4.028,0,0,1,2.462.648,2.56,2.56,0,0,1,.857,2.179v5.563l1.459.365v1l-2.827.091-.383-1.277a4.176,4.176,0,0,1-2.882,1.459,2.9,2.9,0,0,1-2.134-.711,2.739,2.739,0,0,1-.711-2.025q0-2.827,4.2-2.827h1.459v-1.459q0-1.641-1.733-1.642a5.532,5.532,0,0,0-1.624.2l-.219.073-.255,1.368h-1.186Zm5.107,4.925h-1.277a3.892,3.892,0,0,0-1.943.356,1.207,1.207,0,0,0-.575,1.1,1.569,1.569,0,0,0,.338,1.085,1.248,1.248,0,0,0,.976.374,1.927,1.927,0,0,0,.629-.109,4.011,4.011,0,0,0,.62-.273,3.588,3.588,0,0,0,.538-.356,3.282,3.282,0,0,0,.383-.355l.31-.365Z" transform="translate(-3881.434 -2606.977)"/></g></g></g></g></svg>